<?xml version="1.0" encoding="UTF-8" standalone="no"?>
<svg
   xmlns:dc="http://purl.org/dc/elements/1.1/"
   xmlns:cc="http://creativecommons.org/ns#"
   xmlns:rdf="http://www.w3.org/1999/02/22-rdf-syntax-ns#"
   xmlns:svg="http://www.w3.org/2000/svg"
   xmlns="http://www.w3.org/2000/svg"
   xmlns:sodipodi="http://sodipodi.sourceforge.net/DTD/sodipodi-0.dtd"
   xmlns:inkscape="http://www.inkscape.org/namespaces/inkscape"
   viewBox="0 -410 2048 2048"
   id="svg3078"
   version="1.1"
   inkscape:version="0.48.3.1 r9886"
   width="100%"
   height="100%"
   sodipodi:docname="b.svg">
  <metadata
     id="metadata3088">
    <rdf:RDF>
      <cc:Work
         rdf:about="">
        <dc:format>image/svg+xml</dc:format>
        <dc:type
           rdf:resource="http://purl.org/dc/dcmitype/StillImage" />
      </cc:Work>
    </rdf:RDF>
  </metadata>
  <defs
     id="defs3086" />
  <sodipodi:namedview
     pagecolor="#ffffff"
     bordercolor="#666666"
     borderopacity="1"
     objecttolerance="10"
     gridtolerance="10"
     guidetolerance="10"
     inkscape:pageopacity="0"
     inkscape:pageshadow="2"
     inkscape:window-width="1107"
     inkscape:window-height="894"
     id="namedview3084"
     showgrid="false"
     inkscape:zoom="0.32593203"
     inkscape:cx="1127.0956"
     inkscape:cy="846.23584"
     inkscape:window-x="2277"
     inkscape:window-y="67"
     inkscape:window-maximized="0"
     inkscape:current-layer="svg3078" />
  <g
     transform="matrix(1 0 0 -1 0 1638)"
     id="g3080">
    <path
       fill="#000000"
       d="M1290 582l-42 102q-102 22 -224 22q-121 0 -222 -22l-42 -101q124 31 264 31q138 0 266 -32zM1206 788l-29 70v27q-76 11 -153 11q-75 0 -152 -11l-1 -27l-27 -70q85 15 180 15q96 0 182 -15zM1171 410q-40 30 -80 95h-32q0 -49 23 -95h89zM965 410q23 49 23 95h-32 q-39 -64 -81 -95h90zM1024 392q-14 -57 -34 -79t-53 -46q-36 -25 -85 -42.5t-109 -8.5l-281 39q-17 2 -30.5 0t-25.5 -2q-21 0 -53.5 -9.5t-50.5 -27.5l-97 159q18 20 32 28t33 17q58 27 124 33q28 2 55 1t56 2q54 -9 108.5 -16.5t109.5 -15.5q60 0 81 12q11 6 35 22t48 47 q-53 6 -108 20.5t-97 30.5l104 258q-78 45 -109 72.5t-49 63.5q-26 46 -33.5 89t-6.5 77q1 60 28.5 132.5t103.5 129.5q63 48 123 99t119 119q-74 38 -74 121q0 56 39.5 96t96.5 40q56 0 96 -40t40 -96q0 -82 -74 -121q58 -68 117.5 -119t124.5 -99q75 -57 102 -129.5 t29 -132.5q0 -34 -7 -77t-32 -89q-20 -36 -50.5 -63.5t-107.5 -72.5l104 -258q-44 -16 -99 -30.5t-106 -20.5q23 -31 47 -47t36 -22q21 -12 81 -12q54 8 108.5 15.5t109.5 16.5q27 -3 54.5 -2t56.5 -1q64 -6 124 -33q18 -9 32.5 -17t32.5 -28l-98 -159q-18 18 -50.5 27.5 t-52.5 9.5q-13 0 -26.5 2t-30.5 0l-280 -39q-60 -9 -111.5 8t-84.5 45q-33 27 -52.5 46.5t-32.5 76.5zM987 1136v-85q0 -37 37 -37v0q37 0 37 37v86h90q35 0 35 36v0q0 36 -35 36h-90v90q0 37 -37 37v0q-37 0 -37 -37v-90h-88q-35 0 -35 -36v0q0 -36 35 -36z"
       id="path3082" />
  </g>
  <path
     style="fill:#ffffff"
     d="m 1000.6578,1025.5867 c -9.89912,-7.6165 -12.69733,-23.2499 -12.78183,-71.41162 l -0.0732,-41.71794 -34.5164,-1.98888 c -18.98402,-1.09388 -41.81341,-1.99516 -50.73199,-2.00283 -9.71349,-0.008 -19.23664,-1.99341 -23.74975,-4.95052 -12.92136,-8.4664 -16.63382,-36.96195 -6.58649,-50.55555 7.67073,-10.37817 16.66204,-12.00662 66.29294,-12.00662 l 49.29169,0 0.0171,-46.7889 c 0.0253,-69.2747 4.48158,-79.0042 36.18502,-79.0042 14.0664,0 17.7172,1.28922 25.3964,8.96836 l 8.9683,8.96836 0,53.92819 0,53.92819 50.7764,0 c 55.4438,0 64.6934,2.17641 71.3513,16.78895 7.4889,16.43644 1.6662,40.50156 -11.5052,47.55071 -3.3871,1.81268 -28.2184,3.15907 -58.2627,3.15907 l -52.3598,0 0,52.39412 0,52.39411 -8.9683,8.9684 c -7.694,7.6939 -11.2908,8.9586 -25.3121,8.9001 -10.8727,-0.045 -18.7162,-1.8937 -23.4314,-5.5215 l 0,0 z"
     id="path3332"
     inkscape:connector-curvature="0"
     transform="translate(0,-410)" />
  <path
     style="fill:#ffffff"
     d="m 853.83583,1239.4019 c 4.06179,-10.7447 9.64431,-24.9077 12.40562,-31.4734 2.76131,-6.5656 5.87189,-19.181 6.91241,-28.0342 l 1.89184,-16.0966 40.27088,-4.1811 c 51.88879,-5.3873 166.89622,-5.3681 218.98912,0.037 l 40.6527,4.2178 0,13.1383 c 0,8.6462 4.7264,24.4195 13.8237,46.1334 7.603,18.1473 13.4507,33.3682 12.9947,33.8241 -0.456,0.456 -13.6126,-1.0807 -29.237,-3.4147 -50.1488,-7.4915 -128.468,-11.5104 -182.78584,-9.3798 -48.34559,1.8965 -118.54528,8.5514 -135.74772,12.8689 l -7.55547,1.8963 7.38506,-19.5357 z"
     id="path3334"
     inkscape:connector-curvature="0"
     transform="translate(0,-410)" />
  <path
     style="fill:#ffffff"
     d="m 1257.7977,1457.5062 c -59.1627,-14.4955 -153.8455,-24.4103 -232.9433,-24.3929 -81.16974,0.018 -153.83809,7.0936 -224.94946,21.9035 -16.43919,3.4237 -31.19517,5.761 -32.79108,5.194 -2.74278,-0.9746 31.23191,-87.0775 36.53971,-92.6036 3.09494,-3.2222 36.48273,-9.6719 82.8847,-16.0112 47.53312,-6.4938 171.47503,-9.1134 225.52353,-4.7666 42.6919,3.4335 90.3159,9.7202 119.6569,15.7957 l 15.3406,3.1765 19.1758,46.8915 c 10.5466,25.7904 19.1757,47.836 19.1757,48.9902 0,2.6118 0.2498,2.6496 -27.6131,-4.1771 l 0,0 z"
     id="path3336"
     inkscape:connector-curvature="0"
     transform="translate(0,-410)" />
  <path
     style="fill:#ffffff"
     d="m 905.32336,1611.8118 c 12.45804,-13.0819 29.4528,-33.7917 37.76614,-46.0219 l 15.11515,-22.2367 14.2506,0 14.2506,0 -2.47082,20.5237 c -2.72608,22.644 -9.98248,49.9538 -16.75077,63.0422 l -4.38406,8.4778 -40.21392,0 -40.21391,0 22.65099,-23.7851 z"
     id="path3338"
     inkscape:connector-curvature="0"
     transform="translate(0,-410)" />
  <path
     style="fill:#ffffff"
     d="m 1080.2692,1630.2277 c -6.8893,-12.9274 -15.9907,-46.6286 -17.7738,-65.8134 l -1.9388,-20.8611 13.9917,0 13.9918,0 17.6695,25.312 c 9.7182,13.9217 26.6275,34.6315 37.5762,46.0219 l 19.9068,20.7098 -40.281,0 c -35.2275,0 -40.6401,-0.6736 -43.1424,-5.3692 z"
     id="path3340"
     inkscape:connector-curvature="0"
     transform="translate(0,-410)" />
</svg>
