<?xml version="1.0" encoding="UTF-8" standalone="no"?>
<svg
   xmlns:dc="http://purl.org/dc/elements/1.1/"
   xmlns:cc="http://creativecommons.org/ns#"
   xmlns:rdf="http://www.w3.org/1999/02/22-rdf-syntax-ns#"
   xmlns:svg="http://www.w3.org/2000/svg"
   xmlns="http://www.w3.org/2000/svg"
   xmlns:sodipodi="http://sodipodi.sourceforge.net/DTD/sodipodi-0.dtd"
   xmlns:inkscape="http://www.inkscape.org/namespaces/inkscape"
   viewBox="0 -410 2048 2048"
   id="svg3066"
   version="1.1"
   inkscape:version="0.48.3.1 r9886"
   width="100%"
   height="100%"
   sodipodi:docname="B.svg">
  <metadata
     id="metadata3076">
    <rdf:RDF>
      <cc:Work
         rdf:about="">
        <dc:format>image/svg+xml</dc:format>
        <dc:type
           rdf:resource="http://purl.org/dc/dcmitype/StillImage" />
      </cc:Work>
    </rdf:RDF>
  </metadata>
  <defs
     id="defs3074" />
  <sodipodi:namedview
     pagecolor="#ffffff"
     bordercolor="#666666"
     borderopacity="1"
     objecttolerance="10"
     gridtolerance="10"
     guidetolerance="10"
     inkscape:pageopacity="0"
     inkscape:pageshadow="2"
     inkscape:window-width="1113"
     inkscape:window-height="860"
     id="namedview3072"
     showgrid="false"
     inkscape:zoom="0.29492188"
     inkscape:cx="1024"
     inkscape:cy="1024"
     inkscape:window-x="2234"
     inkscape:window-y="93"
     inkscape:window-maximized="0"
     inkscape:current-layer="svg3066" />
  <g
     transform="matrix(1 0 0 -1 0 1638)"
     id="g3068">
    <path
       fill="#000000"
       d="M988 1138l-83 1q-34 0 -34 34v0q0 34 34 34h83v86q0 35 36 35v0q35 0 35 -35v-86h86q33 0 33 -34v0q0 -34 -33 -34h-86v-82q0 -36 -35 -36v0q-36 0 -36 36v81zM1024 560q68 0 132.5 11.5t124.5 27.5q-117 31 -257 31q-142 0 -257 -31q58 -16 123 -27.5t134 -11.5z M1024 1649q68 0 68 68t-68 68t-68 -68t68 -68zM1024 700q117 0 225 -23l-48 123q-88 14 -177 14q-91 0 -178 -14l-48 -123q107 23 226 23zM1024 882q97 0 186 -15q98 35 142 109q38 64 38 141q0 46 -23 101.5t-75 100.5q-59 49 -129 107.5t-139 136.5q-70 -78 -140 -136.5 t-128 -107.5q-53 -45 -75.5 -100.5t-22.5 -101.5q0 -77 37 -141q43 -74 143 -109q88 15 186 15zM988 505h-32q-56 -90 -107 -113q-24 -12 -53 -22t-67 -10q-7 0 -107 16q-48 7 -76 15t-44 10q-57 7 -133 -6q-46 -8 -86 -29l48 -78q12 12 31.5 15.5t35.5 7.5q42 7 80 2 q13 -3 51 -7.5t101 -14.5q75 -11 102 -11q105 0 161 40q34 26 64.5 72.5t30.5 112.5zM1024 392q-14 -57 -34 -79t-53 -46q-36 -25 -85 -42.5t-109 -8.5l-281 39q-17 2 -30.5 0t-25.5 -2q-21 0 -53.5 -9.5t-50.5 -27.5l-97 159q18 20 32 28t33 17q58 27 124 33q28 2 55 1 t56 2q54 -9 108.5 -16.5t109.5 -15.5q60 0 81 12q11 6 35 22t48 47q-53 6 -108 20.5t-97 30.5l104 258q-78 45 -109 72.5t-49 63.5q-26 46 -33.5 89t-6.5 77q1 60 28.5 132.5t103.5 129.5q63 48 123 99t119 119q-74 38 -74 121q0 56 39.5 96t96.5 40q56 0 96 -40t40 -96 q0 -82 -74 -121q58 -68 117.5 -119t124.5 -99q75 -57 102 -129.5t29 -132.5q0 -34 -7 -77t-32 -89q-20 -36 -50.5 -63.5t-107.5 -72.5l104 -258q-44 -16 -99 -30.5t-106 -20.5q23 -31 47 -47t36 -22q21 -12 81 -12q54 8 108.5 15.5t109.5 16.5q27 -3 54.5 -2t56.5 -1 q64 -6 124 -33q18 -9 32.5 -17t32.5 -28l-98 -159q-18 18 -50.5 27.5t-52.5 9.5q-13 0 -26.5 2t-30.5 0l-280 -39q-60 -9 -111.5 8t-84.5 45q-33 27 -52.5 46.5t-32.5 76.5zM1059 505q0 -66 30.5 -112.5t65.5 -72.5q55 -40 161 -40q26 0 102 11q62 10 100 14.5t51 7.5 q38 5 80 -2q16 -4 35.5 -7.5t32.5 -15.5l48 78q-41 21 -87 29q-76 13 -133 6q-17 -2 -44.5 -10t-74.5 -15q-101 -16 -107 -16q-39 0 -68 10t-52 22q-53 24 -108 113h-32z"
       id="path3070" />
  </g>
  <path
     style="fill:#ffffff"
     d="m 1008.0636,395.42777 c -32.17519,-4.81379 -49.16559,-26.80866 -49.16559,-63.64711 0,-45.26311 20.71022,-65.69324 66.59389,-65.69324 42.1313,0 63.9385,22.11731 63.9385,64.84768 0,47.36882 -31.0936,72.01415 -81.3668,64.49267 z"
     id="path3320"
     inkscape:connector-curvature="0"
     transform="translate(0,-410)" />
  <path
     style="fill:#ffffff"
     d="m 816.03281,1170.1187 c -70.94905,-30.5283 -115.94173,-77.081 -139.18228,-144.008 -26.81114,-77.20947 -20.25313,-151.36223 19.73512,-223.14929 17.67229,-31.72537 44.97003,-58.83769 136.85541,-135.92578 45.90998,-38.5166 106.93288,-93.76498 136.40891,-123.50069 l 53.33603,-53.80596 51.7765,52.06532 c 29.1374,29.29985 91.8065,85.57929 143.3262,128.71282 50.3524,42.15613 98.8799,85.61003 107.839,96.56423 19.9789,24.42798 47.229,79.51984 55.1346,111.4664 8.0412,32.49443 7.2697,83.34461 -1.8005,118.6755 -20.0694,78.17575 -65.0224,132.89695 -138.4034,168.47795 l -28.0913,13.6209 -46.5047,-6.2812 c -63.9119,-8.6324 -223.92489,-8.7627 -284.43241,-0.2316 -22.69596,3.1999 -42.53172,5.7554 -44.07948,5.6788 -1.54774,-0.077 -11.41071,-3.8383 -21.9177,-8.3593 l 0,-10e-5 z M 1037.727,1025.8576 c 19.7286,-5.4789 22.8929,-15.0052 22.8929,-68.92041 l 0,-45.69895 51.1626,-1.09195 51.1626,-1.09199 8.1752,-9.51357 c 14.0417,-16.34073 9.7076,-48.33825 -7.6166,-56.23174 -4.7942,-2.18437 -28.1219,-3.76462 -55.5732,-3.76462 l -47.3106,0 0,-47.63858 c 0,-56.6834 -2.9262,-65.43366 -23.7578,-71.04301 -9.7208,-2.61755 -17.4384,-2.59635 -27.3596,0.0752 -20.09959,5.41223 -23.47866,15.87856 -23.47866,72.72268 l 0,45.88374 -45.99774,0 c -60.35119,0 -69.07135,4.49478 -69.07135,35.60265 0,30.80399 9.59799,35.60265 71.21036,35.60265 l 43.85873,0 0,43.5735 c 0,47.48803 3.135,62.02763 14.57276,67.58643 16.8466,8.1875 20.4755,8.5733 37.1304,3.948 l 0,0 z"
     id="path3322"
     inkscape:connector-curvature="0"
     transform="translate(0,-410)" />
  <path
     style="fill:#ffffff"
     d="m 802.9245,1366.3222 c 0,-1.4481 9.98467,-28.1042 22.18816,-59.2359 18.06235,-46.078 23.57917,-56.9386 29.66887,-58.4071 48.33281,-11.6554 236.73847,-14.6533 305.31917,-4.8582 20.2137,2.8871 37.903,6.5628 39.3093,8.1684 3.8503,4.3955 45.5757,112.9936 43.9893,114.4902 -0.7565,0.7138 -17.3967,-1.465 -36.9781,-4.8416 -105.8398,-18.251 -252.08185,-18.7925 -359.41723,-1.3308 -17.71655,2.8822 -34.88212,6.0071 -38.14569,6.9441 -3.26358,0.937 -5.93378,0.5189 -5.93378,-0.9291 z"
     id="path3324"
     inkscape:connector-curvature="0"
     transform="translate(0,-410)" />
  <path
     style="fill:#ffffff"
     d="m 986.02384,1485.1104 c -52.95507,-3.12 -150.89975,-19.3964 -194.96689,-32.3994 l -13.56291,-4.0021 18.64901,-4.4873 c 80.54071,-19.3796 195.92455,-28.1273 291.45885,-22.0965 79.6551,5.0285 191.7585,23.2778 176.4617,28.7263 -17.4985,6.2327 -97.6147,22.2181 -139.0199,27.7384 -37.8513,5.0464 -108.1094,8.3418 -139.01986,6.5206 z"
     id="path3326"
     inkscape:connector-curvature="0"
     transform="translate(0,-410)" />
  <path
     style="fill:#ffffff"
     d="m 685.94437,1762.8414 c -5.5947,-0.7457 -53.65828,-7.709 -106.80795,-15.4739 -111.16907,-16.2413 -157.29965,-18.0553 -201.74834,-7.9331 -14.91921,3.3975 -31.27491,8.6001 -36.34601,11.5614 -5.0711,2.9613 -9.83259,4.7014 -10.58109,3.867 -3.17777,-3.5425 -39.59995,-63.8564 -41.41022,-68.5738 -1.50786,-3.9295 4.38061,-7.6246 24.52754,-15.3913 36.36386,-14.0186 75.79082,-21.0785 129.92898,-23.2654 42.54326,-1.7186 49.00642,-1.1158 91.54967,8.5381 54.78119,12.4308 70.00314,15.21 140.98483,25.74 78.24201,11.6071 112.82375,6.5102 175.05796,-25.8013 29.70196,-15.421 61.56132,-46.3966 89.36749,-86.8886 16.32701,-23.7757 17.08711,-24.3709 31.14602,-24.3875 l 14.41059,-0.017 0,13.0205 c 0,18.1252 -11.44588,61.0139 -21.66486,81.1801 -11.27383,22.2478 -44.98828,64.4013 -63.55089,79.4582 -39.48938,32.0314 -93.70163,47.1553 -165.69816,46.2259 -21.44635,-0.2769 -43.57086,-1.1135 -49.16556,-1.8592 z"
     id="path3328"
     inkscape:connector-curvature="0"
     transform="translate(0,-410)" />
  <path
     style="fill:#ffffff"
     d="m 1245.4146,1760.3159 c -52.6893,-10.5898 -85.321,-26.9912 -115.7878,-58.1971 -35.7064,-36.5728 -55.9244,-73.1196 -64.2078,-116.0648 -7.7142,-39.9943 -7.4108,-41.2381 10.0609,-41.2381 14.6073,0 15.1118,0.3872 29.6689,22.7687 23.3709,35.9329 64.7645,76.0218 93.1714,90.2348 33.7212,16.8718 62.3768,25.9294 93.1302,29.4369 22.7903,2.5992 36.4461,1.4541 100.4151,-8.4205 40.7207,-6.2858 90.0383,-15.5159 109.5947,-20.5113 60.2797,-15.3976 133.7862,-14.7268 198.4485,1.8111 29.2675,7.4853 59.2012,19.8142 59.2012,24.3834 0,3.7631 -40.5934,70.5221 -42.8816,70.5221 -0.844,0 -5.977,-2.2973 -11.4066,-5.105 -13.9854,-7.2322 -53.8133,-15.0723 -87.8745,-17.2981 -23.8597,-1.5591 -50.8543,1.1895 -150.634,15.3378 -129.253,18.3276 -177.6553,21.0315 -220.8986,12.3401 z"
     id="path3330"
     inkscape:connector-curvature="0"
     transform="translate(0,-410)" />
</svg>
