<?xml version="1.0" encoding="UTF-8" standalone="no"?>
<svg
   xmlns:dc="http://purl.org/dc/elements/1.1/"
   xmlns:cc="http://creativecommons.org/ns#"
   xmlns:rdf="http://www.w3.org/1999/02/22-rdf-syntax-ns#"
   xmlns:svg="http://www.w3.org/2000/svg"
   xmlns="http://www.w3.org/2000/svg"
   xmlns:sodipodi="http://sodipodi.sourceforge.net/DTD/sodipodi-0.dtd"
   xmlns:inkscape="http://www.inkscape.org/namespaces/inkscape"
   viewBox="0 -410 2048 2048"
   id="svg3114"
   version="1.1"
   inkscape:version="0.48.3.1 r9886"
   width="100%"
   height="100%"
   sodipodi:docname="n.svg">
  <metadata
     id="metadata3124">
    <rdf:RDF>
      <cc:Work
         rdf:about="">
        <dc:format>image/svg+xml</dc:format>
        <dc:type
           rdf:resource="http://purl.org/dc/dcmitype/StillImage" />
      </cc:Work>
    </rdf:RDF>
  </metadata>
  <defs
     id="defs3122" />
  <sodipodi:namedview
     pagecolor="#ffffff"
     bordercolor="#666666"
     borderopacity="1"
     objecttolerance="10"
     gridtolerance="10"
     guidetolerance="10"
     inkscape:pageopacity="0"
     inkscape:pageshadow="2"
     inkscape:window-width="953"
     inkscape:window-height="818"
     id="namedview3120"
     showgrid="false"
     inkscape:zoom="0.23046875"
     inkscape:cx="1230.9063"
     inkscape:cy="792.37344"
     inkscape:window-x="2112"
     inkscape:window-y="44"
     inkscape:window-maximized="0"
     inkscape:current-layer="svg3114" />
  <g
     transform="matrix(1 0 0 -1 0 1638)"
     id="g3116">
    <path
       fill="#000000"
       d="M490 683q4 9 13 27q17 42 17 50q-2 28 -29 28q-20 0 -47 -57q-4 -8 -12 -14q-27 -28 8 -47v0q32 -19 50 13zM1080 1054q70 92 69 205q-4 33 -38 33q-46 0 -36 -34q3 -55 -11 -91q-23 -57 -51 -85q-15 -30 18 -44v0q32 -15 49 16zM819 1542q-5 36 2 78q-60 -12 -113 -56 q-32 -17 -15 -47q17 -31 47 -10q21 11 38.5 20.5t40.5 14.5zM1756 274q-1 0 2 54.5t3 117.5q1 125 0 258.5t-36 266.5q-34 128 -75 218.5t-89 156.5q-72 108 -196 183t-259 98q4 -23 2.5 -47t0.5 -46q97 -33 183 -82t126 -106q48 -66 89 -156.5t75 -218.5q34 -133 35 -266.5 t1 -258.5q0 -63 -3 -117.5t0 -54.5h141zM1079 1697q157 -10 291 -81t228 -182q66 -78 124.5 -188t93.5 -233q40 -143 50.5 -300.5t10.5 -291.5v-218h-155.5h-403.5h-671q-9 0 -8.5 49t6.5 79q4 24 19 68t50 107q16 32 76 93.5t138 142.5q45 46 70.5 116t21.5 127 q-37 -30 -81 -49q-212 -76 -307 -220q-7 -9 -45 -81q-20 -38 -34 -52q-19 -19 -55 -21q-56 -3 -87 54q-42 -12 -75 -10q-56 21 -81 45q-51 51 -66.5 102t-15.5 110q0 84 104 222q122 159 130 242q0 36 7 81q6 31 25 60q13 20 17.5 27.5t16.5 22.5q9 12 15 18.5t15 17.5 q11 13 28 30q-53 146 -43 301q199 -71 334 -223q33 113 130 183q80 -56 127 -148zM404 861q29 20 6 48q-24 23 -53 4q-61 -40 -65 -105q1 -33 39 -31q36 3 35 37q8 32 38 47zM656 1359l22 11q30 12 19 44q-12 30 -46 20q-118 -43 -163 -158q-7 -33 24 -45q31 -10 42 22 q8 17 12 22q11 -9 29 -12q61 -10 71 54q3 22 -10 42z"
       id="path3118" />
  </g>
  <path
     style="fill:#ffffff"
     d="m 699.01206,534.20634 c -9.78345,-14.93142 -8.73312,-30.74436 2.75521,-41.48041 24.23151,-22.6448 74.19709,-50.5048 103.493,-57.70603 l 11.28962,-2.7751 -0.22993,36.37735 -0.22992,36.37734 -16.85164,5.04887 c -9.26841,2.77688 -29.0515,11.75476 -43.96242,19.95083 -32.51305,17.87141 -46.61964,18.92623 -56.26396,4.20715 l 4e-5,0 z"
     id="path3286"
     inkscape:connector-curvature="0"
     transform="translate(0,-410)" />
  <path
     style="fill:#ffffff"
     d="m 506.62948,809.69748 c -21.79279,-13.28761 -22.35676,-25.8754 -2.88844,-64.46948 23.58318,-46.7514 66.09449,-88.79822 114.04358,-112.7975 42.64807,-21.34603 56.94545,-22.71749 69.56603,-6.67303 17.29398,21.98574 10.80286,39.65633 -20.36811,55.44751 -11.94644,6.05205 -13.48106,8.47663 -9.76271,15.42442 6.55703,12.25192 5.33903,46.50293 -2.17008,61.02394 -12.47443,24.12288 -43.65497,32.21215 -74.49483,19.32643 -8.64231,-3.61098 -16.14976,-6.05166 -16.68322,-5.42373 -0.53347,0.62794 -5.12141,9.37473 -10.19543,19.43731 -8.33337,16.5264 -19.99673,27.29115 -29.52206,27.2475 -1.94672,-0.009 -9.83285,-3.85344 -17.52473,-8.54337 l 0,0 z"
     id="path3288"
     inkscape:connector-curvature="0"
     transform="translate(0,-410)" />
  <path
     style="fill:#ffffff"
     d="m 308.84875,1264.9081 c -13.00466,-7.9272 -16.22656,-23.1232 -9.99562,-47.1441 14.44889,-55.7019 74.46966,-103.3017 102.81556,-81.5384 6.7518,5.1838 16.97993,21.4888 16.97993,27.0681 0,1.5552 -11.68545,14.333 -25.96766,28.3951 -20.38454,20.0705 -26.56073,29.2765 -28.72605,42.8176 -1.51711,9.4875 -6.1861,20.352 -10.37553,24.1434 -9.83875,8.904 -34.68702,12.3805 -44.73063,6.2583 l 0,0 z"
     id="path3290"
     inkscape:connector-curvature="0"
     transform="translate(0,-410)" />
  <path
     style="fill:#ffffff"
     d="m 449.0215,1379.2606 c -10.44416,-3.818 -26.03389,-19.6004 -26.03389,-26.3558 0,-3.4169 5.49865,-13.3274 12.21924,-22.0233 6.72058,-8.696 17.55035,-25.0999 24.06616,-36.4532 14.93772,-26.0278 29.06833,-36.0785 41.42589,-29.4649 20.636,11.044 19.86244,25.6408 -4.2473,80.1448 -14.4301,32.6217 -26.95209,41.6382 -47.4301,34.1524 z"
     id="path3292"
     inkscape:connector-curvature="0"
     transform="translate(0,-410)" />
  <path
     style="fill:#ffffff"
     d="m 1031.4562,1007.0114 c -14.6258,-6.3558 -23.3468,-21.14069 -19.2006,-32.55094 1.3008,-3.57966 8.5936,-14.31864 16.2064,-23.86441 7.6128,-9.54576 21.27,-33.95254 30.3495,-54.23728 16.2767,-36.36425 18.887,-53.46739 19.3434,-126.74109 0.01,-1.69403 7.7282,-5.38975 17.1504,-8.2127 22.0761,-6.61417 40.7581,0.43012 48.091,18.13332 10.074,24.3206 -5.5312,106.47251 -29.0634,153.00168 -16.1543,31.94122 -43.5927,71.32222 -53.3207,76.52842 -10.4447,5.5899 -12.2484,5.4644 -29.556,-2.057 l 0,0 z"
     id="path3294"
     inkscape:connector-curvature="0"
     transform="translate(0,-410)" />
  <path
     style="fill:#ffffff"
     d="m 1619.3438,1569.9859 c 3.7919,-323.5673 -6.5053,-416.0492 -66.5017,-597.27231 -32.8158,-99.12242 -67.9087,-173.47157 -116.9359,-247.74466 -42.2953,-64.07476 -78.3624,-95.29042 -166.8169,-144.37828 -29.8833,-16.58375 -103.6951,-49.31935 -133.6038,-59.25344 l -22.5996,-7.50637 -0.314,-20.26146 c -0.1726,-11.14381 -0.9559,-31.55889 -1.7405,-45.36686 -1.2319,-21.6793 -0.4488,-24.81562 5.7377,-22.98199 3.9404,1.16788 19.8558,5.01355 35.3677,8.54592 68.5086,15.60087 164.5853,57.16572 228.6929,98.93749 108.0223,70.38614 183.8088,159.56557 251.8873,296.40059 52.5091,105.54129 100.6573,264.49667 118.2864,390.50847 6.5459,46.7892 10.4307,314.7237 6.4752,446.5857 l -3.1988,106.6346 -68.5566,0 -68.5565,0 2.3771,-202.8474 0,0 z"
     id="path3296"
     inkscape:connector-curvature="0"
     transform="translate(0,-410)" />
</svg>
