<?xml version="1.0" encoding="UTF-8" standalone="no"?>
<svg
   xmlns:dc="http://purl.org/dc/elements/1.1/"
   xmlns:cc="http://creativecommons.org/ns#"
   xmlns:rdf="http://www.w3.org/1999/02/22-rdf-syntax-ns#"
   xmlns:svg="http://www.w3.org/2000/svg"
   xmlns="http://www.w3.org/2000/svg"
   xmlns:sodipodi="http://sodipodi.sourceforge.net/DTD/sodipodi-0.dtd"
   xmlns:inkscape="http://www.inkscape.org/namespaces/inkscape"
   viewBox="0 -410 2048 2048"
   id="svg3090"
   version="1.1"
   inkscape:version="0.48.3.1 r9886"
   width="100%"
   height="100%"
   sodipodi:docname="k.svg">
  <metadata
     id="metadata3100">
    <rdf:RDF>
      <cc:Work
         rdf:about="">
        <dc:format>image/svg+xml</dc:format>
        <dc:type
           rdf:resource="http://purl.org/dc/dcmitype/StillImage" />
      </cc:Work>
    </rdf:RDF>
  </metadata>
  <defs
     id="defs3098" />
  <sodipodi:namedview
     pagecolor="#ffffff"
     bordercolor="#666666"
     borderopacity="1"
     objecttolerance="10"
     gridtolerance="10"
     guidetolerance="10"
     inkscape:pageopacity="0"
     inkscape:pageshadow="2"
     inkscape:window-width="1267"
     inkscape:window-height="848"
     id="namedview3096"
     showgrid="false"
     inkscape:zoom="0.4609375"
     inkscape:cx="944.35274"
     inkscape:cy="747.30577"
     inkscape:window-x="2056"
     inkscape:window-y="161"
     inkscape:window-maximized="0"
     inkscape:current-layer="svg3090" />
  <g
     transform="matrix(1 0 0 -1 0 1638)"
     id="g3092">
    <path
       fill="#000000"
       d="M1133 865q0 29 6.5 82.5t20.5 83.5q37 81 106 150q20 20 86 54q65 32 139 32q56 0 111.5 -19.5t83.5 -59.5q25 -34 25 -110q0 -60 -49 -112q-32 -33 -69 -66.5t-71 -78.5q-58 20 -161.5 31t-227.5 13zM1060 787q172 -3 282 -17t198 -33q55 54 122 103t94 84q48 65 48 162 q0 89 -43 149q-77 113 -235 113q-92 0 -192 -40q-91 -36 -132 -78q-85 -82 -124 -216q-15 -46 -16.5 -117t-1.5 -110zM1518 614q-184 51 -490 51q-308 0 -496 -52l15 -101q189 49 481 49q291 0 474 -48zM1544 315l-30 118q-195 45 -490 45q-292 0 -488 -45l-32 -119 q190 58 521 58q159 0 295 -16t224 -41zM463 522l-33 187q-1 0 -3 4q-5 7 -28.5 18.5t-54.5 39.5q-44 37 -68.5 60t-44.5 50q-61 84 -68 203q-10 115 93 229q104 114 281 107q66 -4 155 -32q29 -12 59.5 -23.5t60.5 -23.5q16 -8 28 -16q-5 21 -5 42q0 78 55.5 133t133.5 56 q78 0 133 -55.5t55 -132.5q0 -16 -4 -42q14 9 27 15q46 20 121 47q86 29 155 33q177 8 280 -107q101 -114 94 -229q-8 -119 -69 -203q-20 -27 -45 -50.5t-67 -59.5q-33 -28 -56 -39.5t-27 -18.5q-1 -2 -2 -3t-1 -2l-32 -188l66 -247q-50 -45 -224 -74t-402 -29 q-232 0 -408 30.5t-221 76.5zM988 788q0 40 -2 110.5t-15 117.5q-41 134 -124 216q-43 42 -132 78q-102 40 -193 40q-158 0 -234 -113q-43 -60 -43 -150q0 -98 48 -161q25 -36 96 -89t120 -98q87 19 196.5 33t282.5 16zM1024 1039q7 28 12 39q10 39 23 66q6 17 17.5 39.5 t24.5 51.5q8 17 17 41.5t18 48.5q8 20 8 43q0 49 -35 83.5t-85 34.5q-119 0 -119 -119q0 -23 8 -43q22 -65 34 -90q13 -29 24 -51.5t19 -39.5q13 -33 22 -66q2 -6 12 -38zM1059 1559h-71v131h-83q-34 0 -34 33v1q0 33 34 33h83v85q0 35 36 35v0q35 0 35 -35v-85h86 q33 0 33 -33v-1q0 -33 -33 -33l-85 -1zM912 865q-125 -2 -228.5 -13t-160.5 -31q-30 37 -69.5 74.5t-69.5 70.5q-50 51 -50 112q0 75 25 110q27 40 83 59.5t113 19.5q72 0 138 -32q65 -34 86 -54q68 -69 106 -150q13 -30 19.5 -83.5t7.5 -82.5zM1024 1210q-2 10 -5 17 q-6 20 -10 29q-3 7 -8 17.5t-10 22.5q-3 7 -7.5 18.5t-7.5 21.5q-3 9 -3 19q0 53 51 53q53 0 53 -52q0 -13 -4 -19q-14 -38 -15 -41q-15 -30 -19 -39q-7 -16 -9 -29q-3 -6 -4 -10.5t-2 -7.5z"
       id="path3094" />
  </g>
  <path
     style="fill:#ffffff"
     d="m 1411.0373,1285.4025 c -50.1153,-8.7451 -149.2703,-18.6626 -220.3444,-22.0389 l -129.2258,-6.1388 5.0047,-91.8802 c 6.0132,-110.3918 27.8649,-186.27206 74.3567,-258.20397 48.6673,-75.29767 87.8721,-110.83614 161.1544,-146.08351 165.5845,-79.64294 341.5656,-70.39944 425.3518,22.34184 53.3792,59.08447 69.0696,99.25372 69.2355,177.25189 0.2138,100.49565 -25.014,151.35295 -108.3524,218.42975 -34.5681,27.823 -81.9174,67.1838 -105.2207,87.4686 -47.5805,41.4171 -44.5549,41.0854 -171.9598,18.8533 z m 290.9959,-254.6692 c 23.3213,-55.81569 11.7664,-146.8685 -23.4237,-184.5793 -29.414,-31.5209 -75.8475,-52.81659 -136.4389,-62.57453 -151.4839,-24.39578 -295.5787,57.05166 -373.8889,211.33515 -22.0384,43.41898 -28.7486,69.19848 -32.5864,125.19038 l -4.833,70.5119 60.4786,0 c 82.1682,0 232.9799,15.7719 285.3006,29.8368 l 42.8704,11.5244 84.8942,-85.3853 c 46.6918,-46.962 90.624,-99.0988 97.6271,-115.8595 z"
     id="path3310"
     inkscape:connector-curvature="0"
     transform="translate(0,-410)" />
  <path
     style="fill:#ffffff"
     d="m 1016.3002,980.56193 c -15.0185,-49.80556 -22.55741,-69.4754 -45.07514,-117.6057 -27.02037,-57.75441 -36.73334,-81.09471 -52.39109,-125.8959 l -10.99426,-31.45763 -0.0757,-28.20339 c -0.0626,-23.33403 0.76581,-30.87931 4.79831,-43.70239 15.31456,-48.69932 57.09162,-73.16964 118.78697,-69.57782 32.1833,1.87366 57.0994,13.43792 79.6672,36.9757 21.6825,22.61445 31.0028,46.37564 30.7813,78.474 -0.1349,19.54642 -1.039,24.29337 -9.1293,47.93333 -12.908,37.71739 -30.0557,79.26568 -49.1616,119.11752 -9.153,19.09153 -21.3541,46.42712 -27.1135,60.74577 -10.2203,25.40886 -30.4678,86.3419 -30.4678,91.69011 0,7.87867 -3.9775,0.23669 -9.6254,-18.4936 l 0,0 z m 33.009,-207.92136 c 13.72,-27.1519 28.6842,-69.49567 28.6842,-81.16674 0,-16.61493 -5.4787,-31.08001 -15.0453,-39.72281 -9.9758,-9.01258 -20.1462,-12.29361 -38.1072,-12.29361 -17.3873,0 -27.8407,3.17646 -37.04301,11.2562 -9.63636,8.46083 -13.90981,18.55533 -15.43021,36.44842 -1.3957,16.42544 2.92213,30.95952 22.5582,75.9322 6.51232,14.91525 15.17872,36.88135 19.25872,48.81356 4.0799,11.9322 8.0025,23.15932 8.7168,24.94915 0.7381,1.84932 4.8021,-7.51681 9.4136,-21.69491 4.4632,-13.72204 12.1106,-32.85669 16.9942,-42.52146 l 0,0 z"
     id="path3312"
     inkscape:connector-curvature="0"
     transform="translate(0,-410)" />
  <path
     style="fill:#ffffff"
     d="m 483.55273,1285.5463 c -13.72203,-11.9984 -48.37966,-40.118 -77.01694,-62.4881 -67.25492,-52.5361 -88.90759,-71.8766 -107.71728,-96.2147 -36.27975,-46.9427 -51.71915,-96.6026 -51.71117,-166.32554 0.006,-48.39927 6.52839,-80.54108 23.52733,-115.93263 10.68261,-22.24102 29.80826,-49.9217 47.73408,-69.08585 22.96394,-24.55031 63.34826,-48.99293 101.18398,-61.24163 55.12349,-17.84532 130.0912,-19.01133 203.93221,-3.17185 57.9216,12.42464 142.58686,47.34906 185.38622,76.47181 60.93101,41.46041 115.68165,118.7952 149.39876,211.02442 18.33055,50.14107 23.76415,83.46677 26.51348,162.61367 1.07767,31.0238 1.9891,65.7699 2.0254,77.2137 l 0.0659,20.8069 -62.37288,1.3746 c -100.67686,2.2187 -173.40451,7.8666 -258.71187,20.0908 -55.36918,7.9343 -117.10158,18.3831 -140.60919,23.7995 -7.53167,1.7354 -14.36557,3.0933 -15.18644,3.0177 -0.82085,-0.076 -12.7196,-9.9544 -26.44164,-21.9528 z m 57.67615,-62.7346 c 58.12669,-17.9535 170.50846,-31.391 307.88318,-36.8135 34.60339,-1.3658 63.26124,-2.807 63.68412,-3.2026 1.49983,-1.4032 -6.59272,-80.5582 -10.73653,-105.0164 -5.5672,-32.8593 -11.26893,-51.3503 -23.11283,-74.9562 C 847.82572,940.79628 792.4641,871.71317 753.65443,846.47668 677.61245,797.0294 616.53287,778.2626 541.04426,781.15187 c -83.32829,3.18934 -151.91681,32.51096 -183.13362,78.2897 -15.52912,22.77311 -24.02919,59.72514 -24.0441,104.52597 -0.0137,41.21246 8.45311,67.46576 31.75536,98.46456 5.79686,7.7116 39.3516,43.339 74.56611,79.1721 35.21451,35.8331 67.79342,69.7883 72.39758,75.4561 4.60416,5.6678 9.61516,10.3051 11.13556,10.3051 1.5204,0 9.39889,-2.0492 17.50773,-4.5537 z"
     id="path3314"
     inkscape:connector-curvature="0"
     transform="translate(0,-410)" />
  <path
     style="fill:#ffffff"
     d="m 547.60176,1530.5519 c -1.71365,-5.1662 -14.16108,-93.4586 -13.2975,-94.3222 3.20575,-3.2057 83.83626,-20.3905 129.31627,-27.5611 107.37922,-16.93 210.85601,-23.6315 365.55937,-23.675 187.1502,-0.053 323.8938,11.9729 441.4915,38.8257 18.4949,4.2232 36.3118,8.2437 39.5932,8.9344 3.2814,0.6907 5.9598,2.3541 5.952,3.6965 -0.028,4.8896 -14.943,95.1379 -15.8773,96.0722 -0.5291,0.5291 -8.6412,-0.9854 -18.0268,-3.3656 -72.9894,-18.51 -175.0568,-31.94 -301.2682,-39.6407 -56.1035,-3.4231 -247.35672,-3.4332 -304.8136,-0.016 -124.95802,7.4316 -224.72419,20.3428 -303.72881,39.3069 -21.64326,5.1952 -23.70769,5.3398 -24.90013,1.745 z"
     id="path3316"
     inkscape:connector-curvature="0"
     transform="translate(0,-410)" />
  <path
     style="fill:#ffffff"
     d="m 507.41714,1728.3815 c 0,-4.2317 28.63416,-109.3964 30.26277,-111.146 2.29036,-2.4607 55.72246,-13.2771 97.73723,-19.7852 117.494,-18.2 228.08991,-25.4189 389.42376,-25.4189 196.8492,0 345.7033,12.8068 472.3774,40.6413 l 15.7726,3.4658 14.5235,56.6647 c 7.9879,31.1656 14.2047,56.9834 13.8152,57.373 -0.3896,0.3895 -12.2979,-2.1857 -26.4629,-5.7226 -143.5627,-35.8469 -359.0921,-53.9697 -571.27773,-48.0359 -178.3549,4.9876 -306.15831,19.9784 -408.47517,47.9123 -25.93961,7.0818 -27.69666,7.3388 -27.69666,4.0515 z"
     id="path3318"
     inkscape:connector-curvature="0"
     transform="translate(0,-410)" />
</svg>
