<?xml version="1.0" encoding="UTF-8" standalone="no"?>
<svg
   xmlns:dc="http://purl.org/dc/elements/1.1/"
   xmlns:cc="http://creativecommons.org/ns#"
   xmlns:rdf="http://www.w3.org/1999/02/22-rdf-syntax-ns#"
   xmlns:svg="http://www.w3.org/2000/svg"
   xmlns="http://www.w3.org/2000/svg"
   xmlns:sodipodi="http://sodipodi.sourceforge.net/DTD/sodipodi-0.dtd"
   xmlns:inkscape="http://www.inkscape.org/namespaces/inkscape"
   viewBox="0 -410 2048 2048"
   id="svg3126"
   version="1.1"
   inkscape:version="0.48.3.1 r9886"
   width="100%"
   height="100%"
   sodipodi:docname="N.svg">
  <metadata
     id="metadata3136">
    <rdf:RDF>
      <cc:Work
         rdf:about="">
        <dc:format>image/svg+xml</dc:format>
        <dc:type
           rdf:resource="http://purl.org/dc/dcmitype/StillImage" />
      </cc:Work>
    </rdf:RDF>
  </metadata>
  <defs
     id="defs3134" />
  <sodipodi:namedview
     pagecolor="#ffffff"
     bordercolor="#666666"
     borderopacity="1"
     objecttolerance="10"
     gridtolerance="10"
     guidetolerance="10"
     inkscape:pageopacity="0"
     inkscape:pageshadow="2"
     inkscape:window-width="1014"
     inkscape:window-height="887"
     id="namedview3132"
     showgrid="false"
     inkscape:zoom="0.23046875"
     inkscape:cx="1133.2342"
     inkscape:cy="1022.466"
     inkscape:window-x="2159"
     inkscape:window-y="69"
     inkscape:window-maximized="0"
     inkscape:current-layer="svg3126" />
  <g
     transform="matrix(1 0 0 -1 0 1638)"
     id="g3128">
    <path
       fill="#000000"
       d="M697 1359q13 -20 10 -42q-10 -64 -71 -54q-18 3 -29 12q-4 -5 -12 -22q-11 -32 -42 -22q-31 12 -24 45q45 115 163 158q34 10 45 -20q12 -32 -18 -44l-11 -5.5zM400 882q-29 -18 -35 -48q1 -33 -31 -36q-35 -4 -36 30q4 66 59 105q26 21 48 -4q22 -27 -5 -47zM1079 1697 q157 -10 291 -81t228 -182q66 -78 124.5 -188t93.5 -233q40 -143 50.5 -300.5t10.5 -291.5v-218h-155.5h-403.5h-671q-9 0 -8.5 49t6.5 79q4 24 19 68t50 107q16 32 76 93.5t138 142.5q45 46 70.5 116t21.5 127q-37 -30 -81 -49q-212 -76 -307 -220q-7 -9 -45 -81 q-20 -38 -34 -52q-19 -19 -55 -21q-56 -3 -87 54q-42 -12 -75 -10q-56 21 -81 45q-51 51 -66.5 102t-15.5 110q0 84 104 222q122 159 130 242q0 36 7 81q6 31 25 60q13 20 17.5 27.5t16.5 22.5q9 12 15 18.5t15 17.5q11 13 28 30q-53 146 -43 301q199 -71 334 -223 q33 113 130 183q80 -56 127 -148zM1756 274q-1 0 2 54.5t3 117.5q1 125 0 258.5t-36 266.5q-34 128 -75 218.5t-89 156.5q-72 108 -196 183t-259 98q9 -49 8 -96q-2 -36 -34 -36q-37 0 -33 36q3 132 -94 226q-76 -80 -82 -186q-2 -35 -36 -31q-32 1 -32 37l2 8 q-41 -13 -86 -37q-29 -20 -47 10t16 47q43 22 65 33q-86 88 -196 142q12 -139 76 -263q17 -26 -8 -46q-28 -22 -47 7q-7 10 -20 36q-21 -21 -28 -31q-7 -9 -24.5 -40t-25.5 -51q-9 -25 -7.5 -40.5t2.5 -34.5q-9 -59 -40.5 -111t-80.5 -127q-47 -72 -72 -108t-38 -92 q-9 -34 0 -82.5t39 -75.5q46 -47 89 -43q14 0 37.5 11t36.5 42q26 57 43 57q25 0 27 -28q0 -6 -16 -50q-9 -20 -24 -42q-19 -26 -17 -22q16 -57 53 -20q11 11 25 41t44 81q35 59 75 96t71 60q18 13 44 30t70 35q35 14 77.5 34.5t75.5 52.5q46 45 71 111q13 37 10 91 q-9 34 34 34q32 0 36 -33q0 -113 -64 -206q21 -64 11 -140q-9 -61 -42.5 -130.5t-135.5 -154.5q-207 -172 -196 -354h170.5h320.5h547z"
       id="path3130" />
  </g>
  <path
     style="fill:#ffffff"
     d="m 720.14236,1751.7107 c 0,-32.6765 11.8311,-84.6541 27.61216,-121.3085 29.38077,-68.2423 79.52766,-129.6906 176.32004,-216.0568 70.36143,-62.7824 103.17594,-101.6651 128.24784,-151.9639 30.2589,-60.7051 41.7996,-106.2535 42.527,-167.8438 0.371,-31.393 -1.7321,-61.634 -5.2961,-76.1596 -5.8463,-23.82805 -5.7671,-24.32716 7.2324,-45.55937 29.0033,-47.37146 48.577,-115.44724 48.577,-168.94716 0,-29.35691 -0.9306,-32.6902 -11.4326,-40.9511 -13.3545,-10.50459 -39.2973,-11.92847 -51.7381,-2.83965 -7.1748,5.24171 -8.802,13.43705 -10.9842,55.32203 -2.8567,54.83247 -12.0881,83.68549 -40.4416,126.40196 -35.775,53.89724 -74.3653,82.77929 -164.30934,122.97389 -74.72176,33.3919 -91.52104,42.5355 -133.29755,72.552 -49.85015,35.8174 -103.95745,88.4647 -131.83724,128.2797 -12.6551,18.0728 -36.02849,57.2663 -51.94085,87.0968 -32.97251,61.8128 -35.11405,64.9339 -52.17423,76.0411 l -12.49469,8.1348 -10.28497,-11.957 c -10.66126,-12.3945 -13.39967,-26.3919 -6.05167,-30.9332 7.30208,-4.513 34.55229,-56.3888 41.29328,-78.6094 9.10858,-30.0251 8.30152,-43.3919 -3.1022,-51.3794 -20.69682,-14.4966 -31.36139,-6.2145 -60.93497,47.3221 -15.54508,28.141 -22.56752,36.3922 -37.85153,44.4746 -21.9436,11.604 -53.46403,13.101 -76.16214,3.6171 -19.42915,-8.118 -61.39614,-47.7922 -71.32341,-67.4267 -19.00788,-37.5946 -22.40768,-95.8112 -8.27366,-141.6744 12.37231,-40.1466 19.85087,-53.9735 68.84268,-127.2811 59.99333,-89.76936 113.93105,-175.91479 129.10233,-206.19287 17.55353,-35.03247 26.97068,-75.73235 26.51262,-114.58464 -0.35857,-30.41555 0.81537,-34.49857 21.83212,-75.93222 12.2161,-24.08352 30.44895,-53.94019 40.51746,-66.34815 l 18.30637,-22.55993 10.9954,20.25487 c 6.04747,11.14019 16.36949,23.2447 22.93782,26.89892 10.98921,6.11373 13.2334,5.95138 28.11669,-2.03393 25.35603,-13.60424 27.36539,-26.36679 10.07597,-63.99797 -31.91784,-69.4706 -57.53638,-156.30126 -67.32271,-228.18144 l -2.56277,-18.82348 25.06164,14.1326 c 45.13051,25.4497 101.15265,65.64601 132.77212,95.26497 l 31.0403,29.07644 -34.66352,17.44343 c -43.8909,22.08682 -51.81574,30.433 -48.03459,50.58831 2.77908,14.81379 19.67469,32.90392 30.7312,32.90392 2.93827,0 23.66481,-8.58491 46.05891,-19.07757 58.18221,-27.26105 60.24197,-27.68024 60.24197,-12.2602 0,16.28084 12.24283,27.13874 33.87136,30.03973 23.8454,3.19834 33.48024,-7.19563 37.48247,-40.43571 1.68999,-14.03627 5.0984,-34.30693 7.57422,-45.04591 6.67709,-28.96241 35.30973,-86.08179 54.90219,-109.52466 l 17.19604,-20.57551 12.95278,14.75237 c 48.7865,55.5648 72.3305,112.8395 77.58,188.72619 3.2991,47.69224 8.9675,56.7911 35.3795,56.7911 12.0556,0 19.3639,-2.9425 26.698,-10.74923 9.7805,-10.41096 10.0178,-12.45393 7.5387,-64.92149 l -2.5596,-54.17226 13.8277,2.61655 c 27.8485,5.26959 88.5904,23.99963 126.6414,39.05039 99.5697,39.38399 198.6917,107.34597 260.4656,178.58537 83.3167,96.08333 148.7032,223.6713 194.4372,379.40351 46.4855,158.2915 47.4584,167.0882 49.5337,447.8821 0.9701,131.2542 0.4615,252.8 -1.1303,270.1017 l -2.8941,31.4576 -515.9688,0 -515.96874,0 0,-21.8779 z M 349.04881,1247.8325 c 8.32833,-3.7947 12.91879,-11.1972 18.16215,-29.2881 5.32949,-18.3882 12.08916,-29.1341 28.10972,-44.6866 21.65545,-21.0226 25.05646,-31.2283 16.04514,-48.1477 -13.19652,-24.7774 -38.61537,-27.2827 -63.14028,-6.2232 -20.96602,18.0035 -25.53301,23.4913 -36.17191,43.4651 -18.65133,35.0166 -18.93535,82.1625 -0.52431,87.0324 13.75346,3.638 26.4047,2.9123 37.51949,-2.1519 l 0,0 z M 584.86626,813.20529 c 3.15747,-2.45291 9.6168,-12.05738 14.35407,-21.3432 7.43956,-14.58271 9.54433,-16.11051 15.44647,-11.21215 4.01656,3.33343 18.18213,5.70177 34.36533,5.74555 25.35582,0.0686 28.65415,-1.04708 41.72794,-14.11466 13.6451,-13.63869 14.20526,-15.55409 14.43809,-49.37186 l 0.24212,-35.18272 15.9639,-8.18997 c 17.39797,-8.92572 23.25677,-22.19903 18.39577,-41.6765 -8.19161,-32.82275 -32.39533,-35.44244 -84.85711,-9.18449 -57.97779,29.01879 -118.74757,98.00382 -128.26854,145.60867 -6.72952,33.6476 31.80445,59.4209 58.19179,38.92133 l 1.7e-4,0 z"
     id="path3284"
     inkscape:connector-curvature="0"
     transform="translate(0,-410)" />
</svg>
