<?xml version="1.0" encoding="UTF-8" standalone="no"?>
<svg
   xmlns:dc="http://purl.org/dc/elements/1.1/"
   xmlns:cc="http://creativecommons.org/ns#"
   xmlns:rdf="http://www.w3.org/1999/02/22-rdf-syntax-ns#"
   xmlns:svg="http://www.w3.org/2000/svg"
   xmlns="http://www.w3.org/2000/svg"
   xmlns:sodipodi="http://sodipodi.sourceforge.net/DTD/sodipodi-0.dtd"
   xmlns:inkscape="http://www.inkscape.org/namespaces/inkscape"
   viewBox="0 -410 2048 2048"
   id="svg3174"
   version="1.1"
   inkscape:version="0.48.3.1 r9886"
   width="100%"
   height="100%"
   sodipodi:docname="q.svg">
  <metadata
     id="metadata3184">
    <rdf:RDF>
      <cc:Work
         rdf:about="">
        <dc:format>image/svg+xml</dc:format>
        <dc:type
           rdf:resource="http://purl.org/dc/dcmitype/StillImage" />
      </cc:Work>
    </rdf:RDF>
  </metadata>
  <defs
     id="defs3182" />
  <sodipodi:namedview
     pagecolor="#ffffff"
     bordercolor="#666666"
     borderopacity="1"
     objecttolerance="10"
     gridtolerance="10"
     guidetolerance="10"
     inkscape:pageopacity="0"
     inkscape:pageshadow="2"
     inkscape:window-width="888"
     inkscape:window-height="796"
     id="namedview3180"
     showgrid="false"
     inkscape:zoom="0.25"
     inkscape:cx="1300.681"
     inkscape:cy="1088.5688"
     inkscape:window-x="2237"
     inkscape:window-y="162"
     inkscape:window-maximized="0"
     inkscape:current-layer="svg3174" />
  <g
     transform="matrix(1 0 0 -1 0 1638)"
     id="g3176">
    <path
       fill="#000000"
       d="M1588 793q-83 30 -233.5 49.5t-332.5 19.5q-178 0 -326 -18.5t-233 -48.5l50 -91q84 25 218 36t293 11t294 -11t219 -37zM1814 1461q-57 0 -97 39.5t-40 96.5q0 56 40 96.5t97 40.5q56 0 96 -40.5t40 -96.5q0 -57 -40 -96.5t-96 -39.5zM236 1461q-57 0 -96.5 39.5 t-39.5 96.5q0 56 39.5 96.5t96.5 40.5t97 -40.5t40 -96.5q0 -57 -40 -96.5t-97 -39.5zM1444 1571q-57 0 -96.5 39.5t-39.5 96.5q0 56 39.5 96t96.5 40t97 -40t40 -96q0 -57 -40 -96.5t-97 -39.5zM604 1571q-57 0 -97 39.5t-40 96.5q0 56 40 96t97 40q56 0 96 -40t40 -96 q0 -57 -40 -96.5t-96 -39.5zM1640 283q-49 -43 -220 -72t-394 -29q-227 0 -399 30t-217 75l63 240l-28 157l-88 153l-85 622l49 19l274 -462l6 550l68 12l209 -553l112 595h69l112 -593l207 551l69 -12l6 -550l275 463l47 -22l-83 -619l-89 -153l-28 -159zM1544 315l-30 118 q-195 45 -490 45q-292 0 -488 -45l-32 -119q190 58 521 58q159 0 295 -16t224 -41zM1518 614q-184 51 -490 51q-308 0 -496 -52l15 -101q189 49 481 49q291 0 474 -48zM1024 1621q-57 0 -96.5 40t-39.5 97q0 56 39.5 96t96.5 40q56 0 96.5 -40t40.5 -96q0 -57 -40.5 -97 t-96.5 -40z"
       id="path3178" />
  </g>
  <path
     style="fill:#ffffff"
     d="m 493.91611,1299.8969 c -11.17791,-19.8884 -16.95368,-39.2853 -12.83504,-43.1043 4.11863,-3.8189 32.87147,-12.9993 63.8952,-20.4008 255.19006,-60.8824 762.41943,-56.567 987.59083,8.4022 25.3173,7.3049 44.7408,15.8715 43.1634,19.037 -36.1549,72.554 -36.0025,72.3886 -62.9429,68.2698 -14.4386,-2.2075 -69.2079,-10.9353 -121.7096,-19.3952 -76.4759,-12.3229 -148.9518,-15.3975 -364.4746,-15.4619 -259.11231,-0.077 -325.06543,4.5375 -486.14802,34.0163 -23.65326,4.3287 -28.20238,1.263 -46.53927,-31.3631 z"
     id="path3248"
     inkscape:connector-curvature="0"
     transform="translate(0,-410)" />
  <path
     style="fill:#ffffff"
     d="m 542.64525,1485.1731 c -2.62357,-23.115 -3.56954,-43.2573 -2.10215,-44.7606 5.79559,-5.9373 108.57702,-26.6159 186.67046,-37.5563 106.65613,-14.9417 507.25094,-14.9972 603.11864,-0.083 100.2904,15.6017 163.7713,29.1298 172.473,36.7549 4.1754,3.6588 4.8433,24.9797 1.4842,47.3798 l -6.1075,40.7275 -31.857,-5.7513 c -176.1558,-31.8022 -202.8877,-33.8893 -435.3825,-33.9936 -188.97541,-0.085 -258.51157,3.1418 -334.10172,15.5027 -168.87365,27.6152 -148.72292,29.9962 -154.19543,-18.2196 z"
     id="path3250"
     inkscape:connector-curvature="0"
     transform="translate(0,-410)" />
  <path
     style="fill:#ffffff"
     d="m 524.67933,1676.1364 c 7.26763,-27.9143 14.58741,-52.1603 16.26618,-53.8799 8.13027,-8.3282 124.4862,-26.8251 228.23803,-36.2826 229.32173,-20.9039 703.30376,3.4496 735.74066,37.8028 10.3522,10.9638 32.4705,92.4873 26.6674,98.2905 -1.8999,1.8998 -28.435,-2.1777 -58.967,-9.0613 -127.1938,-28.6763 -220.8329,-35.5535 -472.0551,-34.6693 -217.3082,0.7649 -265.2837,3.4106 -351.45764,19.3817 -54.88813,10.1728 -108.31281,20.8979 -118.72151,23.8337 l -18.92489,5.3378 13.21387,-50.7534 z"
     id="path3252"
     inkscape:connector-curvature="0"
     transform="translate(0,-410)" />
</svg>
