<?xml version="1.0" encoding="UTF-8" standalone="no"?>
<svg
   xmlns:dc="http://purl.org/dc/elements/1.1/"
   xmlns:cc="http://creativecommons.org/ns#"
   xmlns:rdf="http://www.w3.org/1999/02/22-rdf-syntax-ns#"
   xmlns:svg="http://www.w3.org/2000/svg"
   xmlns="http://www.w3.org/2000/svg"
   xmlns:sodipodi="http://sodipodi.sourceforge.net/DTD/sodipodi-0.dtd"
   xmlns:inkscape="http://www.inkscape.org/namespaces/inkscape"
   viewBox="0 -410 2048 2048"
   id="svg3162"
   version="1.1"
   inkscape:version="0.48.3.1 r9886"
   width="100%"
   height="100%"
   sodipodi:docname="Q.svg">
  <metadata
     id="metadata3172">
    <rdf:RDF>
      <cc:Work
         rdf:about="">
        <dc:format>image/svg+xml</dc:format>
        <dc:type
           rdf:resource="http://purl.org/dc/dcmitype/StillImage" />
      </cc:Work>
    </rdf:RDF>
  </metadata>
  <defs
     id="defs3170" />
  <sodipodi:namedview
     pagecolor="#ffffff"
     bordercolor="#666666"
     borderopacity="1"
     objecttolerance="10"
     gridtolerance="10"
     guidetolerance="10"
     inkscape:pageopacity="0"
     inkscape:pageshadow="2"
     inkscape:window-width="1047"
     inkscape:window-height="826"
     id="namedview3168"
     showgrid="false"
     inkscape:zoom="0.32593203"
     inkscape:cx="1080.5265"
     inkscape:cy="852.58106"
     inkscape:window-x="2034"
     inkscape:window-y="183"
     inkscape:window-maximized="0"
     inkscape:current-layer="svg3162" />
  <g
     transform="matrix(1 0 0 -1 0 1638)"
     id="g3164">
    <path
       fill="#000000"
       d="M1024 1621q-57 0 -96.5 40t-39.5 97q0 56 39.5 96t96.5 40q56 0 96.5 -40t40.5 -96q0 -57 -40.5 -97t-96.5 -40zM1024 1691q67 0 67 67q0 66 -67 66q-66 0 -66 -66q0 -67 66 -67zM1533 684q-193 49 -505 49q-320 0 -511 -50l15 -96q195 46 496 46q299 0 488 -45z M1558 744l65 115q-48 -19 -98 -19q-134 0 -214 109q-60 -50 -134 -50q-96 0 -153 75q-64 -70 -153 -70q-72 0 -132 49q-84 -107 -217 -107q-51 0 -101 19l70 -120q194 56 533 56q345 0 534 -57zM1110 983l-85 489l-85 -483q3 2 14 10q23 45 70 45q51 0 66 -45q6 -6 20 -16z M1387 964v463l-165 -454q19 7 32 18q20 25 54 25q40 0 64 -35q3 -4 7 -8.5t8 -8.5zM825 978l-164 449v-457q3 4 9 10q20 42 66 42q38 0 62 -32zM571 922l-215 371l55 -338q57 -40 111 -40q21 0 49 7zM1474 917q23 -7 51 -7q61 0 114 38l55 346zM1534 411l-30 113 q-196 43 -480 43q-281 0 -479 -43l-31 -114q186 56 511 56q317 0 509 -55zM1640 283q-49 -43 -220 -72t-394 -29q-227 0 -399 30t-217 75l63 240l-28 157l-88 153l-85 622l49 19l274 -462l6 550l68 12l209 -553l112 595h69l112 -593l207 551l69 -12l6 -550l275 463l47 -22 l-83 -619l-89 -153l-28 -159zM1559 319q-183 76 -531 76q-355 0 -537 -78q175 -69 534 -69q172 0 314.5 19t219.5 52zM604 1571q-57 0 -97 39.5t-40 96.5q0 56 40 96t97 40q56 0 96 -40t40 -96q0 -57 -40 -96.5t-96 -39.5zM604 1641q66 0 66 66t-66 66q-67 0 -67 -66t67 -66 zM1444 1641q67 0 67 66t-67 66q-66 0 -66 -66t66 -66zM1444 1571q-57 0 -96.5 39.5t-39.5 96.5q0 56 39.5 96t96.5 40t97 -40t40 -96q0 -57 -40 -96.5t-97 -39.5zM236 1461q-57 0 -96.5 39.5t-39.5 96.5q0 56 39.5 96.5t96.5 40.5t97 -40.5t40 -96.5q0 -57 -40 -96.5 t-97 -39.5zM236 1531q67 0 67 66q0 67 -67 67q-66 0 -66 -67q0 -66 66 -66zM1814 1531q66 0 66 66q0 67 -66 67q-67 0 -67 -67q0 -66 67 -66zM1814 1461q-57 0 -97 39.5t-40 96.5q0 56 40 96.5t97 40.5q56 0 96 -40.5t40 -96.5q0 -57 -40 -96.5t-96 -39.5z"
       id="path3166" />
  </g>
  <path
     style="fill:#ffffff"
     d="m 218.88631,513.4458 c -34.11347,-5.60178 -51.49473,-33.76023 -46.33422,-75.06357 4.65577,-37.26358 35.27511,-58.09728 76.33604,-51.93981 34.33035,5.14815 51.10757,26.32511 51.10757,64.51028 0,16.96444 -1.59709,24.8984 -7.11085,35.32508 -11.68147,22.09001 -40.49681,32.66934 -73.99854,27.16802 l 0,0 z"
     id="path3254"
     inkscape:connector-curvature="0"
     transform="translate(0,-410)" />
  <path
     style="fill:#ffffff"
     d="m 585.28712,403.6416 c -28.6587,-6.05868 -42.9742,-23.61364 -45.25539,-55.49625 -3.3144,-46.32314 18.5775,-70.57445 63.70828,-70.57445 42.72631,0 64.312,21.66431 64.06252,64.29585 -0.15683,26.80102 -8.62056,43.73894 -27.38952,54.8129 -11.97319,7.06436 -38.68454,10.43778 -55.12589,6.96195 z"
     id="path3256"
     inkscape:connector-curvature="0"
     transform="translate(0,-410)" />
  <path
     style="fill:#ffffff"
     d="m 994.06279,350.28652 c -13.22806,-4.23915 -27.15934,-20.46166 -31.53885,-36.72591 -4.75641,-17.66399 -2.3908,-44.57737 5.21203,-59.29686 11.39172,-22.05497 42.40373,-33.16145 74.07223,-26.52788 31.6516,6.63002 46.5029,25.97859 46.6281,60.7479 0.1624,45.12462 -21.1309,66.12514 -66.2533,65.34226 -9.929,-0.17227 -22.58312,-1.76505 -28.12021,-3.53951 z"
     id="path3258"
     inkscape:connector-curvature="0"
     transform="translate(0,-410)" />
  <path
     style="fill:#ffffff"
     d="m 1424.0282,403.52548 c -26.7907,-6.81917 -41.1118,-25.14836 -43.4076,-55.5562 -3.4269,-45.38991 19.2323,-70.39838 63.7855,-70.39838 45.1308,0 67.0227,24.25131 63.7083,70.57445 -1.7739,24.79136 -9.2809,38.68269 -25.9722,48.06023 -13.0126,7.31072 -43.2078,11.11405 -58.114,7.3199 z"
     id="path3260"
     inkscape:connector-curvature="0"
     transform="translate(0,-410)" />
  <path
     style="fill:#ffffff"
     d="m 1798.7744,513.66451 c -26.7225,-4.67348 -41.446,-17.22875 -47.8165,-40.77495 -4.1337,-15.27875 -1.7062,-44.68472 4.7136,-57.09931 15.8257,-30.60352 69.3681,-40.41174 100.3142,-18.37615 21.0988,15.02366 28.3445,60.56854 14.1226,88.77142 -11.1188,22.04937 -39.6145,33.02637 -71.3339,27.47899 z"
     id="path3262"
     inkscape:connector-curvature="0"
     transform="translate(0,-410)" />
  <path
     style="fill:#ffffff"
     d="m 479.48097,1124.8477 c -24.31517,-7.2255 -62.97539,-28.1731 -66.24221,-35.8927 -3.21175,-7.5893 -52.44811,-311.24606 -51.11528,-315.24455 0.52955,-1.58865 46.80314,76.23888 102.83019,172.95007 64.02665,110.51968 100.78933,176.91658 98.96527,178.74068 -1.59616,1.5961 -17.1057,3.3554 -34.46566,3.9095 -23.70501,0.7565 -36.14688,-0.3546 -49.97231,-4.463 z"
     id="path3264"
     inkscape:connector-curvature="0"
     transform="translate(0,-410)" />
  <path
     style="fill:#ffffff"
     d="m 662.37867,852.70945 c 0.0771,-121.49772 0.745,-219.52429 1.48427,-217.83682 6.06402,13.8418 156.99808,429.74187 156.23449,430.50547 -2.26618,2.2662 -26.17047,-12.1786 -29.04617,-17.5519 -1.71469,-3.2039 -10.31588,-9.4124 -19.11374,-13.7965 -12.5382,-6.2481 -20.53501,-7.9712 -36.9928,-7.9712 -25.03915,0 -40.84833,6.8754 -53.59789,23.3098 -21.21233,27.3429 -19.12401,48.9943 -18.96816,-196.65885 z"
     id="path3266"
     inkscape:connector-curvature="0"
     transform="translate(0,-410)" />
  <path
     style="fill:#ffffff"
     d="m 1096.5949,1050.2216 c -4.6896,-5.6961 -11.5886,-15.1889 -15.331,-21.095 -10.7693,-16.9958 -28.8188,-25.2232 -55.7161,-25.3965 -30.17857,-0.1945 -46.9062,8.2279 -65.85517,33.1583 -8.91244,11.7258 -14.13227,16.4503 -14.73233,13.3344 -0.51114,-2.6541 17.08013,-107.11922 39.0917,-232.14468 22.0116,-125.02547 40.1379,-228.43874 40.2806,-229.80726 0.1428,-1.36852 18.7473,103.13196 41.3435,232.22329 22.5961,129.09133 40.7152,235.92035 40.2647,237.39775 -0.4506,1.4775 -4.6562,-1.9742 -9.3459,-7.6703 z"
     id="path3268"
     inkscape:connector-curvature="0"
     transform="translate(0,-410)" />
  <path
     style="fill:#ffffff"
     d="m 1369.9982,1062.0761 c -18.7368,-21.934 -35.597,-30.2649 -61.2503,-30.2649 -23.6024,0 -30.8465,2.5682 -48.2441,17.1035 -13.8574,11.5776 -30.5193,21.4674 -32.623,19.3637 -0.6524,-0.6525 34.3375,-98.87483 77.7553,-218.27195 l 78.9416,-217.08566 0.805,112.42153 c 0.4428,61.83184 0.4428,162.23187 0,223.1112 l -0.805,110.68968 -14.5795,-17.0671 z"
     id="path3270"
     inkscape:connector-curvature="0"
     transform="translate(0,-410)" />
  <path
     style="fill:#ffffff"
     d="m 1491.0116,1133.1064 c -7.2726,-1.7409 -12.7953,-4.2889 -12.2725,-5.6622 2.5911,-6.807 209.1731,-359.00662 210.0564,-358.12326 0.5643,0.56425 -10.7019,74.64431 -25.0358,164.62236 -14.334,89.9781 -26.0618,164.0135 -26.0618,164.5232 0,2.724 -41.0443,23.1367 -57.7102,28.7012 -22.6124,7.5499 -69.2436,10.6623 -88.9761,5.9387 l 0,0 z"
     id="path3272"
     inkscape:connector-curvature="0"
     transform="translate(0,-410)" />
  <path
     style="fill:#ffffff"
     d="m 1539.5179,1297.4307 c -56.4395,-17.6837 -169.1248,-35.1545 -289.9377,-44.9521 -66.6001,-5.4011 -380.5308,-5.4443 -447.94617,-0.062 -108.47339,8.6609 -199.87568,21.6246 -265.56542,37.6655 -20.35901,4.9715 -38.85436,9.039 -41.10077,9.039 -4.10353,0 -67.99235,-106.5256 -65.42724,-109.0907 0.75356,-0.7536 11.72541,1.2783 24.38187,4.5153 98.73412,25.2519 205.35301,-6.0965 269.81832,-79.3329 l 15.82742,-17.9808 14.15822,10.0748 c 46.28797,32.938 102.05134,45.0892 156.39074,34.0786 39.99045,-8.1031 70.15097,-23.6313 100.93633,-51.9672 l 13.0596,-12.0204 12.3811,14.0656 c 16.2309,18.4393 48.7018,39.7823 72.9251,47.9335 59.0934,19.8849 134.7935,9.7122 182.6289,-24.5419 l 17.2039,-12.3194 28.4584,28.8261 c 18.0448,18.278 36.6569,33.6387 50.8633,41.9778 58.7203,34.4688 134.2156,44.5993 202.8424,27.2189 12.5131,-3.169 23.2436,-5.2693 23.8457,-4.6672 1.5364,1.5364 -56.8692,104.6414 -59.6573,105.3145 -1.2541,0.3028 -8.4931,-1.3961 -16.0867,-3.7754 z"
     id="path3274"
     inkscape:connector-curvature="0"
     transform="translate(0,-410)" />
  <path
     style="fill:#ffffff"
     d="m 531.73707,1448.6926 c -0.94278,-5.4843 -4.22618,-26.203 -7.29644,-46.0417 l -5.58231,-36.0703 11.26686,-3.0339 c 22.96481,-6.1838 85.6436,-18.0743 127.307,-24.151 103.13351,-15.0421 218.13754,-21.8339 369.70902,-21.8339 193.7123,0 327.1294,10.869 455.6164,37.1172 25.3121,5.1709 46.5398,9.9157 47.1727,10.5439 0.9546,0.9475 -7.803,55.1685 -13.658,84.5613 l -1.5926,7.995 -34.3698,-7.0927 c -94.8496,-19.5737 -210.2068,-30.9564 -353.4547,-34.8769 -222.42891,-6.0876 -445.62057,8.9278 -570.49612,38.3806 -24.09246,5.6824 -22.64454,6.0057 -24.62201,-5.4976 z"
     id="path3276"
     inkscape:connector-curvature="0"
     transform="translate(0,-410)" />
  <path
     style="fill:#ffffff"
     d="m 517.83253,1631.5613 c 0,-4.9689 28.21622,-104.0712 30.09702,-105.7081 3.18439,-2.7714 87.87822,-17.3403 140.82495,-24.2245 98.49871,-12.8068 175.21001,-16.6216 335.3185,-16.6751 159.8584,-0.053 233.623,3.6166 337.4937,16.7911 69.1138,8.7661 136.0067,21.2348 139.817,26.0617 3.6722,4.6518 29.8929,102.7323 27.9766,104.6485 -0.671,0.671 -18.1655,-2.918 -38.8767,-7.9754 -112.2006,-27.3984 -232.9393,-39.5008 -420.5576,-42.1553 -160.24469,-2.2671 -276.73521,3.4945 -391.01694,19.3396 -38.9264,5.3971 -113.60233,20.1876 -136.98582,27.1318 -17.23892,5.1194 -24.09071,5.906 -24.09071,2.7657 z"
     id="path3278"
     inkscape:connector-curvature="0"
     transform="translate(0,-410)" />
  <path
     style="fill:#ffffff"
     d="m 932.02931,1797.4181 c -91.16029,-3.1392 -185.83194,-11.0951 -253.12025,-21.2713 -61.20005,-9.2555 -168.66481,-36.118 -177.4217,-44.3494 -2.82394,-2.6544 33.88578,-16.5091 76.17359,-28.7487 61.28937,-17.7393 154.16758,-32.7533 262.32463,-42.4052 60.1615,-5.3688 314.10992,-5.41 374.31122,-0.061 91.3737,8.1192 149.8286,16.3805 210.5681,29.7592 36.4255,8.0232 95.9722,25.3864 116.1602,33.8711 l 12.2456,5.1467 -19.9159,7.3192 c -66.5613,24.4614 -183.9255,44.7636 -316.6132,54.769 -58.2045,4.3889 -227.52549,7.9394 -284.71229,5.9701 z"
     id="path3280"
     inkscape:connector-curvature="0"
     transform="translate(0,-410)" />
</svg>
