<?xml version="1.0" encoding="UTF-8" standalone="no"?>
<svg
   xmlns:dc="http://purl.org/dc/elements/1.1/"
   xmlns:cc="http://creativecommons.org/ns#"
   xmlns:rdf="http://www.w3.org/1999/02/22-rdf-syntax-ns#"
   xmlns:svg="http://www.w3.org/2000/svg"
   xmlns="http://www.w3.org/2000/svg"
   xmlns:sodipodi="http://sodipodi.sourceforge.net/DTD/sodipodi-0.dtd"
   xmlns:inkscape="http://www.inkscape.org/namespaces/inkscape"
   viewBox="0 -410 2048 2048"
   id="svg3373"
   version="1.1"
   inkscape:version="0.48.3.1 r9886"
   width="100%"
   height="100%"
   sodipodi:docname="K.svg">
  <metadata
     id="metadata3383">
    <rdf:RDF>
      <cc:Work
         rdf:about="">
        <dc:format>image/svg+xml</dc:format>
        <dc:type
           rdf:resource="http://purl.org/dc/dcmitype/StillImage" />
      </cc:Work>
    </rdf:RDF>
  </metadata>
  <defs
     id="defs3381" />
  <sodipodi:namedview
     pagecolor="#ffffff"
     bordercolor="#666666"
     borderopacity="1"
     objecttolerance="10"
     gridtolerance="10"
     guidetolerance="10"
     inkscape:pageopacity="0"
     inkscape:pageshadow="2"
     inkscape:window-width="1109"
     inkscape:window-height="857"
     id="namedview3379"
     showgrid="false"
     inkscape:zoom="0.23046875"
     inkscape:cx="1205.7445"
     inkscape:cy="824.72422"
     inkscape:window-x="2390"
     inkscape:window-y="173"
     inkscape:window-maximized="0"
     inkscape:current-layer="svg3373" />
  <g
     transform="matrix(1 0 0 -1 0 1638)"
     id="g3375">
    <path
       fill="#000000"
       d="M524 583q190 48 504 48q308 0 497 -46l25 147q-201 53 -526 53q-327 0 -525 -54zM463 522l-33 187q-1 0 -3 4q-5 7 -28.5 18.5t-54.5 39.5q-44 37 -68.5 60t-44.5 50q-61 84 -68 203q-10 115 93 229q104 114 281 107q66 -4 155 -32q29 -12 59.5 -23.5t60.5 -23.5 q16 -8 28 -16q-5 21 -5 42q0 78 55.5 133t133.5 56q78 0 133 -55.5t55 -132.5q0 -16 -4 -42q14 9 27 15q46 20 121 47q86 29 155 33q177 8 280 -107q101 -114 94 -229q-8 -119 -69 -203q-20 -27 -45 -50.5t-67 -59.5q-33 -28 -56 -39.5t-27 -18.5q-1 -2 -2 -3t-1 -2 l-32 -188l66 -247q-50 -45 -224 -74t-402 -29q-232 0 -408 30.5t-221 76.5zM1544 405l-30 115q-198 44 -490 44q-291 0 -489 -44l-32 -116q191 56 522 56q329 0 519 -55zM1570 311q-193 78 -542 78q-362 0 -548 -80q176 -70 545 -70q176 0 321 19.5t224 52.5zM989 853 q-1 39 -3 77.5t-15 85.5q-41 134 -124 216q-43 42 -132 78q-102 40 -193 40q-158 0 -234 -113q-43 -60 -43 -150q0 -98 48 -161q29 -37 74 -74t84 -67q175 63 538 68zM1024 1039q7 28 12 39q10 39 23 66q6 17 17.5 39.5t24.5 51.5q8 17 17 41.5t18 48.5q8 20 8 43 q0 49 -35 83.5t-85 34.5q-119 0 -119 -119q0 -23 8 -43q22 -65 34 -90q13 -29 24 -51.5t19 -39.5q13 -33 22 -66q2 -6 12 -38zM1058 853q172 -2 315 -20.5t224 -46.5q38 30 83 66.5t75 74.5q48 61 48 161q0 90 -43 150q-77 112 -234 112q-94 0 -193 -39q-87 -35 -132 -78 q-84 -84 -124 -216q-14 -47 -16.5 -85.5t-2.5 -78.5zM1059 1559h-71v131h-83q-34 0 -34 33v1q0 33 34 33h83v85q0 35 36 35v0q35 0 35 -35v-85h86q33 0 33 -33v-1q0 -33 -33 -33l-85 -1z"
       id="path3377" />
  </g>
  <path
     style="fill:#ffffff"
     d="m 1006.4791,948.8351 c -7.99398,-24.46101 -26.17961,-69.68229 -40.41251,-100.49172 -43.33249,-93.80026 -56.7074,-134.13977 -57.09367,-172.19789 -0.28902,-28.47559 1.44163,-36.43382 12.71819,-58.48339 11.21147,-21.92226 16.49781,-27.28447 37.47474,-38.01246 49.84885,-25.49363 108.34905,-17.98245 146.22475,18.77461 27.0829,26.28305 32.8775,40.38645 32.9963,80.30916 0.095,31.97544 -1.6556,38.98752 -22.2097,88.94915 -12.2721,29.83051 -32.9732,77.6678 -46.0024,106.30509 -13.0291,28.63728 -28.1676,67.2 -33.641,85.69491 -5.4735,18.49492 -11.2046,33.62712 -12.7359,33.62712 -1.5314,0 -9.3248,-20.01356 -17.3188,-44.47458 l 0,0 z"
     id="path3385"
     inkscape:connector-curvature="0"
     transform="translate(0,-410)" />
  <path
     style="fill:#ffffff"
     d="m 407.37165,1225.1924 c -55.9487,-44.4674 -106.14686,-94.6068 -123.55272,-123.4081 -29.63077,-49.0298 -42.32439,-120.62925 -32.67126,-184.28519 16.09742,-106.15172 88.5785,-184.30864 193.48697,-208.63854 67.7309,-15.70785 171.2298,-5.09637 252.39489,25.87741 102.68559,39.18629 152.58798,76.50337 203.61906,152.26661 50.56317,75.06857 78.22297,158.30141 83.06406,249.95331 l 2.91324,55.1533 -62.91526,2.5768 c -205.57507,8.4198 -340.99642,25.4044 -437.60959,54.8851 -15.16662,4.628 -29.81069,8.407 -32.54237,8.3977 -2.73168,-0.01 -23.51583,-14.7596 -46.18702,-32.7784 z"
     id="path3387"
     inkscape:connector-curvature="0"
     transform="translate(0,-410)" />
  <path
     style="fill:#ffffff"
     d="m 1574.5581,1253.0963 c -58.1211,-23.2609 -238.0369,-48.1212 -410.0339,-56.6575 l -104.1356,-5.1682 1.2503,-37.15 c 2.7021,-80.2831 18.2873,-139.2774 57.3852,-217.2177 50.3542,-100.37932 110.5975,-155.54288 214.7204,-196.61508 71.1202,-28.05397 124.6288,-38.43451 196.7255,-38.16424 102.4739,0.38414 179.1189,38.22133 227.5021,112.31056 33.2712,50.9483 44.5015,95.23087 41.1222,162.15069 -3.7925,75.10447 -23.5582,120.83297 -75.0933,173.73037 -32.062,32.9097 -124.483,107.7689 -132.5923,107.3974 -3.3017,-0.1514 -10.8845,-2.2286 -16.8506,-4.6163 l 0,0 z"
     id="path3389"
     inkscape:connector-curvature="0"
     transform="translate(0,-410)" />
  <path
     style="fill:#ffffff"
     d="m 513.98606,1391.9616 c -9.42896,-54.4765 -10.91617,-70.6953 -6.7203,-73.2884 8.55517,-5.2874 88.06329,-21.4509 149.59742,-30.4123 198.77173,-28.9475 526.51222,-29.0409 733.28812,-0.2091 51.2116,7.1407 135.273,22.787 152.2856,28.3449 3.2756,1.0701 1.205,22.9785 -6.6398,70.2507 -9.2013,55.4474 -12.8165,68.9685 -18.7453,70.1103 -4.04,0.778 -27.4114,-2.5704 -51.9365,-7.441 -115.3446,-22.907 -241.4393,-32.1846 -437.2691,-32.1728 -200.0727,0.012 -349.17655,11.7321 -461.89852,36.3067 -21.36623,4.6581 -39.0739,8.4692 -39.35036,8.4692 -0.27647,0 -5.95153,-31.4812 -12.61126,-69.9582 z"
     id="path3391"
     inkscape:connector-curvature="0"
     transform="translate(0,-410)" />
  <path
     style="fill:#ffffff"
     d="m 508.52577,1632.8813 c 1.29742,-4.5373 7.6678,-27.775 14.1564,-51.6394 6.4886,-23.8644 13.9507,-45.5975 16.58245,-48.2958 5.75411,-5.8995 87.6186,-20.5401 165.32737,-29.5671 97.17474,-11.2882 184.84002,-15.4284 324.68411,-15.3337 177.9947,0.1205 313.7751,10.5694 441.1024,33.9448 l 41.1763,7.5594 14.0536,51.8801 c 16.5081,60.9413 16.4192,60.1879 6.6446,56.2854 -13.9596,-5.5733 -102.5043,-23.3098 -150.7797,-30.2029 -185.6408,-26.507 -526.07429,-26.5045 -711.59318,0.01 -46.63048,6.6632 -143.17085,25.7307 -156.84552,30.9782 -5.16998,1.9839 -6.28462,0.596 -4.50883,-5.6142 z"
     id="path3393"
     inkscape:connector-curvature="0"
     transform="translate(0,-410)" />
  <path
     style="fill:#ffffff"
     d="m 919.37165,1803.992 c -112.92722,-3.0563 -201.68169,-11.0808 -282.4386,-25.536 -50.48102,-9.0359 -137.87283,-32.3248 -144.00663,-38.3762 -5.0068,-4.9395 86.60815,-33.5994 146.58082,-45.855 105.37667,-21.5339 237.38254,-32.7065 386.16946,-32.6843 202.5337,0.03 363.7602,19.5458 488.9358,59.1831 l 48.9192,15.4904 -20.8114,7.8999 c -51.0218,19.3675 -168.4065,41.3734 -278.3995,52.191 -77.7135,7.643 -225.1653,10.9289 -344.94915,7.6871 l 0,0 z"
     id="path3395"
     inkscape:connector-curvature="0"
     transform="translate(0,-410)" />
</svg>
