<?xml version="1.0" encoding="UTF-8" standalone="no"?>
<svg
   xmlns:dc="http://purl.org/dc/elements/1.1/"
   xmlns:cc="http://creativecommons.org/ns#"
   xmlns:rdf="http://www.w3.org/1999/02/22-rdf-syntax-ns#"
   xmlns:svg="http://www.w3.org/2000/svg"
   xmlns="http://www.w3.org/2000/svg"
   xmlns:sodipodi="http://sodipodi.sourceforge.net/DTD/sodipodi-0.dtd"
   xmlns:inkscape="http://www.inkscape.org/namespaces/inkscape"
   viewBox="0 -410 2048 2048"
   id="svg3150"
   version="1.1"
   inkscape:version="0.48.3.1 r9886"
   width="100%"
   height="100%"
   sodipodi:docname="P.svg">
  <metadata
     id="metadata3160">
    <rdf:RDF>
      <cc:Work
         rdf:about="">
        <dc:format>image/svg+xml</dc:format>
        <dc:type
           rdf:resource="http://purl.org/dc/dcmitype/StillImage" />
      </cc:Work>
    </rdf:RDF>
  </metadata>
  <defs
     id="defs3158" />
  <sodipodi:namedview
     pagecolor="#ffffff"
     bordercolor="#666666"
     borderopacity="1"
     objecttolerance="10"
     gridtolerance="10"
     guidetolerance="10"
     inkscape:pageopacity="0"
     inkscape:pageshadow="2"
     inkscape:window-width="797"
     inkscape:window-height="725"
     id="namedview3156"
     showgrid="false"
     inkscape:zoom="0.23046875"
     inkscape:cx="1174.2642"
     inkscape:cy="974.6849"
     inkscape:window-x="2263"
     inkscape:window-y="191"
     inkscape:window-maximized="0"
     inkscape:current-layer="svg3150" />
  <g
     transform="matrix(1 0 0 -1 0 1638)"
     id="g3152">
    <path
       fill="#000000"
       d="M1024 273h491q21 72 21 141q0 156 -86.5 283t-222.5 187q-66 5 -66 72q0 53 67 78q93 65 93 172q0 77 -52 135t-126 67q-60 5 -60 68q0 28 22 52q54 42 54 110q0 56 -40 96t-95 40q-57 0 -96.5 -40t-39.5 -96q0 -67 54 -110q22 -22 22 -52q0 -63 -59 -68 q-75 -9 -126.5 -67t-51.5 -135q0 -107 93 -172q67 -26 67 -78q0 -67 -67 -72q-136 -60 -222 -187t-86 -283q0 -74 21 -141h491zM1024 205h-540q-40 100 -40 209q0 185 105 332t270 210q-71 33 -115.5 99.5t-44.5 150.5q0 105 70 182t172 89q-81 61 -81 161q0 84 59.5 144 t144.5 60q84 0 144 -60t60 -144q0 -100 -81 -161q102 -12 172 -89t70 -182q0 -84 -45.5 -150.5t-115.5 -99.5q165 -63 270 -210t105 -332q0 -108 -39 -209h-540z"
       id="path3154" />
  </g>
  <path
     style="fill:#ffffff"
     d="m 530.85801,1758.2236 c -17.59514,-68.5807 -20.58928,-158.4096 -7.38254,-221.4881 35.11134,-167.7 159.31762,-319.1528 303.67704,-370.293 41.09625,-14.5586 52.19718,-24.0721 58.83128,-50.4185 10.48489,-41.6393 -8.39737,-76.6394 -53.74284,-99.6177 -43.63972,-22.11393 -86.1885,-77.67335 -97.68977,-127.56159 -10.07212,-43.68905 -3.13844,-98.59432 17.59052,-139.29285 4.51834,-8.87119 20.12611,-28.86223 34.68394,-44.42459 30.98009,-33.11781 64.13428,-51.23802 111.90678,-61.16194 39.3596,-8.17628 46.34959,-11.77041 57.06297,-29.34071 9.61896,-15.77543 11.64579,-58.18055 3.52599,-73.77104 -2.71482,-5.21261 -14.04299,-19.24018 -25.17376,-31.17238 -31.2437,-33.49333 -41.48344,-58.12704 -41.48344,-99.79661 0,-27.58071 2.07615,-38.92737 10.1059,-55.23139 41.31335,-83.8847 148.41872,-102.9897 213.35172,-38.05675 24.9978,24.99774 35.7419,49.00457 38.102,85.13503 2.7925,42.75164 -6.4828,68.85552 -35.7308,100.55818 -12.5572,13.61111 -26.0379,30.99627 -29.9571,38.63369 -14.5666,28.3857 -4.7716,75.57132 18.5466,89.34575 6.8212,4.02936 26.409,10.27252 43.5283,13.8737 59.2339,12.46022 101.85,40.78788 134.1671,89.18308 41.1621,61.64072 43.7389,146.19054 6.4224,210.73248 -14.0146,24.23942 -55.884,63.38544 -82.0244,76.68914 -34.4996,17.558 -49.6643,38.9618 -49.6643,70.0975 0,39.9125 15.8426,63.5168 48.0321,71.5646 70.4501,17.6132 171.284,95.4396 229.5667,177.1859 62.5487,87.7295 89.5948,165.3062 94.1929,270.1741 2.4825,56.62 0.1284,83.4139 -12.4721,141.9455 l -4.9039,22.7797 -489.4474,0 -489.44734,0 -4.17455,-16.2712 0,0 z"
     id="path3282"
     inkscape:connector-curvature="0"
     transform="translate(0,-410)" />
</svg>
